<?xml version="1.0" encoding="UTF-8"?><svg id="Layer_1" xmlns="http://www.w3.org/2000/svg" viewBox="0 0 16 16"><defs><style>.cls-1{fill:#000;}.cls-1,.cls-2{stroke-width:0px;}.cls-2{fill:#fff;}</style></defs><path class="cls-1" d="M8,0C3.59,0,0,3.59,0,8s3.59,8,8,8,8-3.59,8-8S12.41,0,8,0Z"/><path class="cls-2" d="M8.34,4.72s.05.07.04.11l-.16.51s.02.05.05.04l.43-.32s.08-.03.12,0l.43.31s.06,0,.05-.04l-.17-.51s0-.09.04-.11l.43-.32s.01-.06-.02-.06h-.53s-.08-.02-.09-.06l-.17-.51s-.05-.03-.06,0l-.16.51s-.05.07-.09.07h-.53s-.04.04-.02.06l.43.31Z"/><path class="cls-2" d="M12.35,8.71h-.53s-.08-.02-.1-.06l-.17-.51s-.05-.03-.06,0l-.16.51s-.05.07-.09.07h-.53s-.04.04-.02.06l.43.31s.05.07.04.11l-.16.51s.02.05.05.04l.43-.32s.08-.03.12,0l.43.31s.06,0,.05-.04l-.17-.51s0-.09.04-.11l.43-.32s.01-.06-.02-.06Z"/><path class="cls-2" d="M8.12,8.13s.05.07.04.11l-.16.51s.02.05.05.04l.43-.32s.08-.03.12,0l.43.31s.06,0,.05-.04l-.17-.51s0-.09.04-.11l.43-.32s.01-.06-.02-.06h-.53s-.08-.02-.1-.06l-.17-.51s-.05-.03-.06,0l-.16.51s-.05.07-.09.07h-.53s-.04.04-.02.06l.43.31Z"/><path class="cls-2" d="M11.43,11.02c-.18.04-.37.08-.56.1-2.46.26-4.66-1.52-4.92-3.97-.13-1.22.25-2.38.96-3.27.04-.05-.01-.12-.07-.1-2.02.69-3.34,2.77-2.96,5,.38,2.21,2.39,3.82,4.63,3.7,1.18-.06,2.22-.57,2.97-1.35.04-.04,0-.12-.06-.11Z"/></svg>