<?xml version="1.0" encoding="UTF-8"?>
<svg id="logo" xmlns="http://www.w3.org/2000/svg" version="1.1" viewBox="0 0 140 100">
  <defs>
    <style>
      .cls-1 {
        font-family: Poppins-Regular, Poppins;
        font-size: 33.8px;
        letter-spacing: .2em;
      }

      .cls-1, .cls-2 {
        isolation: isolate;
      }

      .cls-1, .cls-3 {
        fill: #fff;
      }

      .cls-3 {
        stroke-width: 0px;
      }
    </style>
  </defs>
  <g>
    <polygon class="cls-3" points="58.9 18.2 68.1 4.6 70 1.9 71.9 4.6 81.1 18.2 77.7 21.3 70 10 62.3 21.3 58.9 18.2 58.9 18.2"/>
    <path class="cls-3" d="M58.3,36.8l-17.2,15.6c-2.4,2.2-5,3.8-7.9,4.9-2.8,1.1-5.9,1.6-9.1,1.6H1.2l4.5-4L47.6,16.9l1.5-1.4,1.5,1.4,19.3,17.5,19.3-17.5,1.5-1.4,1.5,1.4,42,38,4.5,4h-23c-3.2,0-6.3-.5-9.1-1.6-2.8-1.1-5.4-2.7-7.9-4.9l-17.2-15.6,3.4-3.1,16.8,15.2c2,1.8,4.1,3.1,6.4,4,2.3.9,4.8,1.3,7.5,1.3h11l-36-32.6-17.4,15.8,19.3,17.5,2.7,2.5-3.4,1.4c-14.7,5.9-29.3,5.9-44,0l-3.4-1.4,2.7-2.5,19.3-17.5-17.4-15.8L13.2,54.3h11c2.7,0,5.2-.4,7.5-1.3,2.3-.9,4.4-2.2,6.4-4l16.8-15.2,3.4,3.1h0ZM86.8,55.8l-16.8-15.2-16.8,15.2c11.2,3.7,22.4,3.7,33.6,0h0Z"/>
  </g>
  <g class="cls-2">
    <text class="cls-1" transform="translate(30.1 94.8)"><tspan x="0" y="0">ECC</tspan></text>
  </g>
</svg>