<?xml version="1.0" encoding="UTF-8"?>
<svg id="logo" xmlns="http://www.w3.org/2000/svg" version="1.1" viewBox="0 0 140 100">
  <g>
    <polygon points="58.862 18.171 68.109 4.639 70 1.872 71.891 4.639 81.138 18.171 77.693 21.292 70 10.035 62.307 21.292 58.862 18.171 58.862 18.171" fill="#f16a4b" stroke-width="0"/>
    <path d="M58.257,36.804l-17.163,15.587c-2.414,2.187-5.028,3.824-7.861,4.919-2.831,1.094-5.858,1.637-9.1,1.637H1.167l4.462-4.043L47.626,16.854l1.54-1.395,1.54,1.395,19.294,17.481,19.294-17.481,1.54-1.395,1.54,1.395,41.997,38.049,4.462,4.043h-22.966c-3.242,0-6.269-.543-9.101-1.637-2.833-1.094-5.447-2.732-7.861-4.919l-17.185-15.57,3.441-3.118,16.824,15.243c1.988,1.802,4.124,3.143,6.42,4.03,2.298.888,4.78,1.329,7.462,1.329h10.961l-35.994-32.611-17.393,15.758,19.262,17.451,2.743,2.486-3.428,1.385c-14.662,5.927-29.342,5.927-44.037,0l-3.43-1.383,2.746-2.488,19.262-17.451-17.393-15.758L13.172,54.305h10.961c2.681,0,5.164-.441,7.461-1.329,2.297-.887,4.432-2.229,6.42-4.03l16.82-15.243,3.422,3.1h0ZM86.784,55.776l-16.785-15.207-16.783,15.205c11.199,3.734,22.388,3.735,33.567.002h0Z" fill="#f16a4b" stroke-width="0"/>
  </g>
  <text transform="translate(30.114 94.824)" fill="#254659" font-family="Poppins-Regular, Poppins" font-size="33.77" letter-spacing=".2em"><tspan x="0" y="0">ECC</tspan></text>
</svg>