<?xml version="1.0" encoding="UTF-8"?><svg id="Layer_2" xmlns="http://www.w3.org/2000/svg" viewBox="0 0 40 40"><defs><style>.cls-1{fill:#254659;stroke-width:0px;}</style></defs><circle class="cls-1" cx="20" cy="20" r="5.09" transform="translate(-7.92 24.53) rotate(-54.22)"/><path class="cls-1" d="M26.35,7.98h-12.7c-3.13,0-5.67,2.54-5.67,5.67v12.7c0,3.13,2.54,5.67,5.67,5.67h12.7c3.13,0,5.67-2.54,5.67-5.67v-12.7c0-3.13-2.54-5.67-5.67-5.67ZM20,27.62c-4.2,0-7.62-3.42-7.62-7.62s3.42-7.62,7.62-7.62,7.62,3.42,7.62,7.62-3.42,7.62-7.62,7.62ZM27.77,13.78c-.98,0-1.78-.79-1.78-1.78s.79-1.78,1.78-1.78,1.78.79,1.78,1.78-.79,1.78-1.78,1.78Z"/><path class="cls-1" d="M31.01.29H8.99C4.19.29.29,4.19.29,8.99v22.01c0,4.81,3.9,8.7,8.7,8.7h22.01c4.81,0,8.7-3.9,8.7-8.7V8.99c0-4.81-3.9-8.7-8.7-8.7ZM35.05,26.35c0,4.8-3.9,8.7-8.7,8.7h-12.7c-4.8,0-8.7-3.9-8.7-8.7v-12.7c0-4.8,3.9-8.7,8.7-8.7h12.7c4.8,0,8.7,3.9,8.7,8.7v12.7Z"/></svg>