<?xml version="1.0" encoding="UTF-8"?><svg id="Layer_2" xmlns="http://www.w3.org/2000/svg" viewBox="0 0 16 16"><defs><style>.cls-1{fill:#000;}.cls-1,.cls-2{stroke-width:0px;}.cls-2{fill:#fff;}</style></defs><circle class="cls-2" cx="8" cy="8" r="8" transform="translate(-3.31 8.27) rotate(-46.38)"/><path class="cls-1" d="M8,16c4.41,0,8-3.59,8-8S12.41,0,8,0,0,3.59,0,8s3.59,8,8,8ZM8,.66c4.05,0,7.34,3.29,7.34,7.34s-3.29,7.34-7.34,7.34S.66,12.05.66,8,3.95.66,8,.66Z"/><path class="cls-1" d="M7.48,4.09h1.07c.06,0,.1-.06.07-.12l-.54-1.2c-.03-.06-.12-.06-.15,0l-.54,1.2c-.02.05.02.12.07.12Z"/><path class="cls-1" d="M11.53,5.9s.11.03.14-.02l.54-1.2c.03-.06-.03-.13-.1-.11l-1.25.4c-.06.02-.08.09-.04.13l.72.8Z"/><path class="cls-1" d="M12.03,7.59v1.07c0,.06.06.1.12.07l1.2-.54c.06-.03.06-.12,0-.15l-1.2-.54c-.05-.02-.12.02-.12.07Z"/><path class="cls-1" d="M4.34,5.88c.02.05.1.07.14.02l.72-.8s.02-.11-.04-.13l-1.25-.4c-.07-.02-.13.05-.1.11l.54,1.2Z"/><path class="cls-1" d="M8.56,12.25h-1.07c-.06,0-.1.06-.07.12l.54,1.2c.03.06.12.06.15,0l.54-1.2c.02-.05-.02-.12-.07-.12Z"/><path class="cls-1" d="M11.66,10.42c-.02-.05-.1-.07-.14-.02l-.72.8s-.02.11.04.13l1.25.4c.07.02.13-.05.1-.11l-.54-1.2Z"/><path class="cls-1" d="M4.47,10.4s-.11-.03-.14.02l-.54,1.2c-.03.06.03.13.1.11l1.25-.4c.06-.02.08-.09.04-.13l-.72-.8Z"/><path class="cls-1" d="M3.97,8.66v-1.07c0-.06-.06-.1-.11-.07l-1.2.54c-.06.03-.06.12,0,.15l1.2.54c.05.02.12-.02.12-.07Z"/><circle class="cls-1" cx="7.99" cy="8.16" r="3.22"/></svg>