<?xml version="1.0" encoding="UTF-8"?><svg id="Layer_3" xmlns="http://www.w3.org/2000/svg" viewBox="0 0 40 40"><defs><style>.cls-1{fill:#fff;stroke-width:0px;}</style></defs><path class="cls-1" d="M31.25,0H8.75C3.92,0,0,3.92,0,8.75v22.51c0,4.83,3.92,8.75,8.75,8.75h22.51c4.83,0,8.75-3.92,8.75-8.75V8.75c0-4.83-3.92-8.75-8.75-8.75ZM11.81,33.96h-6V14.94h6v19.02ZM8.86,12.26c-1.91,0-3.45-1.55-3.45-3.45s1.55-3.45,3.45-3.45,3.45,1.55,3.45,3.45-1.55,3.45-3.45,3.45ZM34.08,33.96h-5.92v-10.79s0-3.58-3.09-3.58-3.51,3.06-3.51,4.42v9.96h-6V14.94h5.77v2.6s1.32-3.17,5.96-3.17,6.79,2.94,6.79,8.3v11.28Z"/></svg>